HIERARCHY
ROOT Hips
{
	OFFSET 0.00000 0.00000 0.00000
	CHANNELS 6 Xposition Yposition Zposition Yrotation Zrotation Xrotation 
	JOINT Lumbar
	{
		OFFSET 0 0 0
		CHANNELS 3 Zrotation Xrotation Yrotation
		JOINT Neck
		{
			OFFSET 0.00 0.2701 0.00
			CHANNELS 3 Zrotation Xrotation Yrotation
			End Site
			{
				OFFSET 0.00 0.1379 0.00
			}
		}
		JOINT RightShoulder
		{
			OFFSET 0.0119 0.2289 0.1181
			CHANNELS 3 Zrotation Xrotation Yrotation
			JOINT RightElbow
			{
				OFFSET 0.00 -0.1475 0.00
				CHANNELS 2 Zrotation Yrotation
				JOINT RightWrist
				{
					OFFSET 0.00 -0.1605 0.00
					CHANNELS 2 Zrotation Xrotation
					End Site
					{
						OFFSET 0.0040 -0.1068 0.0006
					}
				}
			}
		}
		JOINT LeftShoulder
		{
			OFFSET 0.0119 0.2289 -0.1181
			CHANNELS 3 Zrotation Xrotation Yrotation
			JOINT LeftElbow
			{
				OFFSET 0.00 -0.1475 0.00
				CHANNELS 2 Zrotation Yrotation
				JOINT LeftWrist
				{
					OFFSET 0.00 -0.1605 0.00
					CHANNELS 2 Zrotation Xrotation
					End Site
					{
						OFFSET 0.0040 -0.1068 -0.0006
					}
				}
			}
		}
	}
	JOINT RightHip
	{
		OFFSET 0.0316 -0.0424 0.0458
		CHANNELS 3 Zrotation Xrotation Yrotation
		JOINT RightKnee
		{
			OFFSET 0.00 -0.2438 0.00
			CHANNELS 1 Zrotation
			JOINT RightAnkle
			{
				OFFSET 0.00 -0.2449 0.00
				CHANNELS 3 Zrotation Xrotation Yrotation
				End Site
				{
					OFFSET 0.1237 -0.0542 0.0051
				}
			}
		}
	}
	JOINT LeftHip
	{
		OFFSET 0.0316 -0.0424 -0.0458
		CHANNELS 3 Zrotation Xrotation Yrotation
		JOINT LeftKnee
		{
			OFFSET 0.00 -0.2438 0.00
			CHANNELS 1 Zrotation
			JOINT LeftAnkle
			{
				OFFSET 0.00 -0.2449 0.00
				CHANNELS 3 Zrotation Xrotation Yrotation
				End Site
				{
					OFFSET 0.1237 -0.0542 -0.0051
				}
			}
		}
	}
}
MOTION
Frames: 14
Frame Time: 0.02
0 0.57926 -0 178.47876 0 0.63812 5.46413 1.36939 2.17328 -34.53619 6.90853 3.7195 31.51056 -18.65547 8.94264 9.53619 82.95126 0.98392 0.52125 33.42626 -1.3329 -4.80004 6.06987 -76.15487 -4.04928 -0.41157 3.45951 3.71665 14.8641 -22.80302 6.20032 -6.93259 -11.81286 2.45068 -2.89042 -4.61985 -17.73452 6.2535 6.78755 10.60928
-0.0007 0.57929 0.00018 178.64451 0 0.58059 5.50489 1.42296 1.59737 -34.32863 6.62099 4.15312 31.24954 -18.66806 9.01902 9.51025 82.96822 0.9936 0.53897 33.18205 -1.35631 -4.74447 6.06406 -76.09898 -4.05135 -0.40054 3.31372 3.74808 14.78745 -22.67049 6.16695 -6.93327 -11.91266 2.42952 -2.8447 -4.68142 -17.78664 6.31426 6.8005 10.51451
-0.0014 0.57931 0.00036 178.80891 0 0.52406 5.54522 1.4756 1.02624 -34.12245 6.33548 4.58345 30.99059 -18.68045 9.09605 9.4845 82.98516 1.0032 0.55659 32.93991 -1.37934 -4.69087 6.05843 -76.0434 -4.05352 -0.38943 3.16957 3.77883 14.71124 -22.54031 6.13448 -6.93415 -12.01143 2.40812 -2.8 -4.74329 -17.83789 6.37424 6.81333 10.42135
-0.00209 0.57933 0.00053 178.96914 0 0.47249 5.5841 1.52353 0.46924 -33.918 6.0554 5.00481 30.73563 -18.69196 9.17515 9.45883 83.00231 1.0126 0.57415 32.70216 -1.40137 -4.64203 6.05297 -75.98878 -4.05597 -0.37801 3.03163 3.80539 14.6343 -22.42018 6.10663 -6.93588 -12.10471 2.38412 -2.76077 -4.80959 -17.88323 6.4299 6.82581 10.33661
-0.00283 0.57936 0.00073 179.15105 0 0.39647 5.63057 1.5946 -0.16187 -33.70246 5.74674 5.47365 30.45763 -18.7079 9.24168 9.43214 83.01849 1.0231 0.59226 32.43954 -1.42916 -4.56478 6.04598 -75.92938 -4.05677 -0.3684 2.86207 3.85206 14.55913 -22.2491 6.05587 -6.93318 -12.22427 2.37217 -2.69474 -4.85555 -17.95638 6.5063 6.84016 10.21077
-0.00346 0.57937 0.00088 179.28719 0 0.371 5.66099 1.61789 -0.6361 -33.51184 5.4987 5.84162 30.2299 -18.7146 9.33581 9.40806 83.03663 1.03123 0.60903 32.23083 -1.44441 -4.54987 6.04268 -75.87995 -4.06116 -0.35488 2.75866 3.85757 14.48171 -22.18443 6.05256 -6.93979 -12.29002 2.33592 -2.68397 -4.94236 -17.97303 6.54023 6.85054 10.16961
-0.0038 0.57931 0.00093 179.29355 0 0.50041 5.64515 1.49427 -0.67038 -33.37234 5.41807 5.93026 30.12479 -18.69327 9.50414 9.38844 83.06167 1.03308 0.62324 32.15704 -1.42551 -4.69708 6.04756 -75.86029 -4.07545 -0.3302 2.84987 3.73279 14.38286 -22.43589 6.19457 -6.97369 -12.18665 2.21893 -2.84437 -5.16722 -17.80725 6.44043 6.84977 10.3906
-0.00403 0.57922 0.00094 179.25422 0 0.67845 5.61302 1.32479 -0.54769 -33.25816 5.39827 5.91691 30.07035 -18.66272 9.70199 9.37269 83.08848 1.03245 0.63567 32.13697 -1.39292 -4.91076 6.05751 -75.85094 -4.09364 -0.30135 3.00598 3.56901 14.28382 -22.79122 6.3823 -7.01672 -12.0319 2.07956 -3.05765 -5.42947 -17.58855 6.30032 6.84505 10.69274
-0.00431 0.57915 0.00096 179.23812 0 0.82413 5.59012 1.18615 -0.50101 -33.14746 5.35088 5.95131 30.00685 -18.6384 9.8865 9.35599 83.11355 1.03281 0.64845 32.10534 -1.36742 -5.09876 6.06519 -75.83455 -4.10975 -0.27491 3.12453 3.43418 14.1954 -23.08451 6.53968 -7.05457 -11.91476 1.95951 -3.23446 -5.65776 -17.41171 6.18967 6.84224 10.9388
-0.00458 0.57908 0.001 179.21201 0 1.01199 5.56124 1.00625 -0.43402 -32.98558 5.30439 5.98139 29.89642 -18.60681 10.06621 9.33284 83.14251 1.03386 0.66405 32.03253 -1.34202 -5.2613 6.0687 -75.82531 -4.12612 -0.24731 3.27629 3.25346 14.06496 -23.43929 6.73636 -7.09678 -11.74035 1.80189 -3.46243 -5.95536 -17.16193 6.03343 6.83888 11.26331
-0.00485 0.579 0.001 179.19541 0 1.12494 5.53876 0.90022 -0.37278 -32.92117 5.26907 5.99422 29.88073 -18.58647 10.26853 9.32784 83.16387 1.03275 0.67224 32.04187 -1.30841 -5.50059 6.08719 -75.80711 -4.14415 -0.21988 3.37531 3.15722 14.01894 -23.69204 6.86341 -7.13207 -11.66937 1.71588 -3.59807 -6.12034 -17.04873 5.96076 6.83583 11.44691
-0.00512 0.57895 0.00097 179.22034 0 1.00714 5.55696 1.01966 -0.35974 -33.24918 5.26199 6.0025 30.24189 -18.61495 10.4765 9.34195 83.1622 1.02783 0.66823 32.40396 -1.29628 -5.86453 6.10425 -75.73347 -4.1559 -0.2038 3.30395 3.31959 14.23234 -23.62544 6.77517 -7.14571 -11.92784 1.84426 -3.45148 -5.8854 -17.34908 6.14437 6.83376 11.19417
-0.00539 0.5789 0.00091 179.25558 0 0.8144 5.57878 1.21322 -0.35909 -33.65015 5.2619 5.99401 30.67217 -18.65277 10.71429 9.38136 83.15256 1.02081 0.65411 32.82029 -1.2688 -6.31441 6.14545 -75.6568 -4.17176 -0.1856 3.17878 3.56542 14.52588 -23.45459 6.6174 -7.15199 -12.28633 2.04331 -3.21275 -5.52017 -17.78424 6.41058 6.83229 10.80191
-0.00565 0.57886 0.00086 179.28352 0 0.66396 5.58625 1.36598 -0.35674 -33.9329 5.25039 5.98071 30.98791 -18.67535 10.97243 9.42696 83.14834 1.01338 0.64111 33.12138 -1.22151 -6.77437 6.20098 -75.59863 -4.19132 -0.16267 3.08427 3.76259 14.76534 -23.3398 6.49938 -7.16199 -12.57853 2.20277 -3.02575 -5.23087 -18.14236 6.62869 6.83112 10.49156
